<?xml version="1.0" encoding="UTF-8"?>
<!DOCTYPE svg PUBLIC "-//W3C//DTD SVG 1.1//EN" "http://www.w3.org/Graphics/SVG/1.1/DTD/svg11.dtd">
<svg xmlns="http://www.w3.org/2000/svg" version="1.1" width="512px" height="512px" style="shape-rendering:geometricPrecision; text-rendering:geometricPrecision; image-rendering:optimizeQuality; fill-rule:evenodd; clip-rule:evenodd" xmlns:xlink="http://www.w3.org/1999/xlink">
<g><path style="opacity:0.974" fill="#617781" d="M 36.5,61.5 C 58.3438,64.4983 66.8438,76.8316 62,98.5C 54.4959,112.455 42.9959,117.288 27.5,113C 14.1839,106.197 9.01721,95.3639 12,80.5C 16.318,68.9962 24.4847,62.6628 36.5,61.5 Z"/></g>
<g><path style="opacity:0.997" fill="#617881" d="M 418.5,105.5 C 418.062,105.435 417.728,105.601 417.5,106C 430.228,122.268 435.395,140.768 433,161.5C 435.953,166.786 439.953,171.12 445,174.5C 471.632,204.528 477.299,238.195 462,275.5C 455.569,289.723 446.069,300.723 433.5,308.5C 438.633,300.602 441.466,291.935 442,282.5C 449.815,276.217 455.148,268.217 458,258.5C 460.292,247.602 458.125,237.769 451.5,229C 444.719,225.892 440.386,227.892 438.5,235C 444.446,243.856 444.946,253.022 440,262.5C 436.387,265.623 433.054,268.956 430,272.5C 429,274.5 428,276.5 427,278.5C 424.628,304.543 410.462,316.377 384.5,314C 380.466,312.063 376.299,310.563 372,309.5C 364.947,310.006 362.614,313.672 365,320.5C 367.559,323.531 370.726,325.698 374.5,327C 372.089,328.955 369.589,330.789 367,332.5C 349.645,363.474 323.145,377.641 287.5,375C 273.016,373.257 260.016,367.924 248.5,359C 243.643,356.79 238.976,357.123 234.5,360C 218.479,382.008 196.813,392.175 169.5,390.5C 163.436,384.056 158.603,376.722 155,368.5C 150.772,363.913 145.606,362.413 139.5,364C 93.8427,379.627 54.676,369.794 22,334.5C 10.0955,319.365 2.59551,302.365 -0.5,283.5C -0.5,273.833 -0.5,264.167 -0.5,254.5C 7.16699,215.544 29.3337,188.211 66,172.5C 67.5519,170.232 68.3852,167.732 68.5,165C 62.8833,134.588 75.55,118.254 106.5,116C 113.877,105.628 122.211,95.961 131.5,87C 159.896,66.047 190.562,62.047 223.5,75C 248.829,87.1528 265.662,106.653 274,133.5C 276.792,136.6 280.292,138.267 284.5,138.5C 305.883,130.787 327.383,130.12 349,136.5C 351.584,135.896 354.084,135.063 356.5,134C 371.974,112.757 392.641,103.257 418.5,105.5 Z"/></g>
<g><path style="opacity:1" fill="#475959" d="M 418.5,105.5 C 442.883,108.383 460.05,121.05 470,143.5C 471.644,148.077 472.978,152.744 474,157.5C 474.333,165.833 474.667,174.167 475,182.5C 479.939,188.442 485.273,194.109 491,199.5C 501.664,212.822 508.497,227.822 511.5,244.5C 511.5,253.5 511.5,262.5 511.5,271.5C 499.686,321.435 468.019,347.268 416.5,349C 414.754,349.471 413.087,350.138 411.5,351C 404.932,361.773 396.932,371.439 387.5,380C 363.989,397.299 338.322,401.299 310.5,392C 303.044,388.773 296.044,384.773 289.5,380C 285.013,377.961 280.68,378.294 276.5,381C 253.95,410.14 225.283,418.473 190.5,406C 182.364,402.276 175.364,397.109 169.5,390.5C 196.813,392.175 218.479,382.008 234.5,360C 238.976,357.123 243.643,356.79 248.5,359C 260.016,367.924 273.016,373.257 287.5,375C 323.145,377.641 349.645,363.474 367,332.5C 369.589,330.789 372.089,328.955 374.5,327C 370.726,325.698 367.559,323.531 365,320.5C 362.614,313.672 364.947,310.006 372,309.5C 376.299,310.563 380.466,312.063 384.5,314C 410.462,316.377 424.628,304.543 427,278.5C 428,276.5 429,274.5 430,272.5C 433.054,268.956 436.387,265.623 440,262.5C 444.946,253.022 444.446,243.856 438.5,235C 440.386,227.892 444.719,225.892 451.5,229C 458.125,237.769 460.292,247.602 458,258.5C 455.148,268.217 449.815,276.217 442,282.5C 441.466,291.935 438.633,300.602 433.5,308.5C 446.069,300.723 455.569,289.723 462,275.5C 477.299,238.195 471.632,204.528 445,174.5C 439.953,171.12 435.953,166.786 433,161.5C 435.395,140.768 430.228,122.268 417.5,106C 417.728,105.601 418.062,105.435 418.5,105.5 Z"/></g>
<g><path style="opacity:1" fill="#99b7bf" d="M 175.5,185.5 C 191.672,183.501 205.505,188.168 217,199.5C 219.234,206.25 216.901,210.25 210,211.5C 205.667,209.846 201.833,207.346 198.5,204C 178.114,196.61 164.281,203.11 157,223.5C 156.875,246.709 168.375,257.543 191.5,256C 198.055,253.473 204.222,250.306 210,246.5C 216.901,247.75 219.234,251.75 217,258.5C 201.098,273.248 183.264,276.082 163.5,267C 140.909,250.988 135.742,230.488 148,205.5C 155.061,195.74 164.228,189.073 175.5,185.5 Z"/></g>
<g><path style="opacity:1" fill="#99b7bf" d="M 267.5,185.5 C 293.709,182.91 311.209,193.91 320,218.5C 323.374,242.927 313.874,260.093 291.5,270C 273.665,275.5 258.165,271.666 245,258.5C 228.398,235.995 229.898,214.828 249.5,195C 255.15,191.01 261.15,187.843 267.5,185.5 Z"/></g>
<g><path style="opacity:1" fill="#617881" d="M 271.5,200.5 C 293.673,199.842 304.84,210.509 305,232.5C 299.616,252.45 286.783,259.95 266.5,255C 250.101,245.599 245.601,232.099 253,214.5C 257.526,207.505 263.693,202.839 271.5,200.5 Z"/></g>
<g><path style="opacity:1" fill="#99b7bf" d="M 346.5,221.5 C 368.165,220.324 377.332,230.324 374,251.5C 368.57,260.694 362.403,269.361 355.5,277.5C 360.467,278.329 365.467,278.829 370.5,279C 374.861,281.226 376.361,284.726 375,289.5C 373.773,291.726 371.939,293.226 369.5,294C 358.5,294.667 347.5,294.667 336.5,294C 331.931,291.459 330.431,287.625 332,282.5C 341,270.833 350,259.167 359,247.5C 361.149,241.361 359.149,237.694 353,236.5C 347.974,237.871 345.64,241.204 346,246.5C 343.442,250.212 339.942,251.378 335.5,250C 333.667,249.5 332.5,248.333 332,246.5C 330.635,234.562 335.469,226.229 346.5,221.5 Z"/></g>
<g><path style="opacity:1" fill="#475959" d="M 54.5,255.5 C 58.1916,254.971 61.3583,255.971 64,258.5C 64.2481,268.693 67.7481,277.526 74.5,285C 77.9335,287.435 81.6002,289.435 85.5,291C 95.1623,290.876 104.829,290.876 114.5,291C 116.833,292 119.167,293 121.5,294C 137.247,309.633 154.58,311.633 173.5,300C 175.885,296.603 179.051,294.437 183,293.5C 189.106,294.704 191.439,298.371 190,304.5C 174.337,322.209 155.171,327.376 132.5,320C 124.631,316.123 117.298,311.456 110.5,306C 101.181,306.349 91.8476,306.349 82.5,306C 59.5527,298.241 49.0527,282.408 51,258.5C 52.1451,257.364 53.3117,256.364 54.5,255.5 Z"/></g>
<g><path style="opacity:0.975" fill="#465858" d="M 442.5,389.5 C 461.803,387.559 473.97,395.892 479,414.5C 479.488,434.854 469.655,446.52 449.5,449.5C 428.128,446.961 418.295,434.961 420,413.5C 422.916,401.087 430.416,393.087 442.5,389.5 Z"/></g>
</svg>
