<?xml version="1.0" encoding="UTF-8"?>
<!DOCTYPE svg PUBLIC "-//W3C//DTD SVG 1.1//EN" "http://www.w3.org/Graphics/SVG/1.1/DTD/svg11.dtd">
<svg xmlns="http://www.w3.org/2000/svg" version="1.1" width="512px" height="512px" style="shape-rendering:geometricPrecision; text-rendering:geometricPrecision; image-rendering:optimizeQuality; fill-rule:evenodd; clip-rule:evenodd" xmlns:xlink="http://www.w3.org/1999/xlink">
<g><path style="opacity:0.911" fill="#000000" d="M 133.5,54.5 C 140.253,52.7717 144.253,55.2717 145.5,62C 143.588,71.5627 141.421,81.0627 139,90.5C 134.333,94.5 129.667,94.5 125,90.5C 124.935,78.8243 126.935,67.491 131,56.5C 131.995,55.9341 132.828,55.2674 133.5,54.5 Z"/></g>
<g><path style="opacity:0.897" fill="#000000" d="M 71.5,62.5 C 75.0254,62.3459 77.8587,63.6792 80,66.5C 83.2754,73.3839 86.2754,80.3839 89,87.5C 90.7172,96.1156 87.2172,99.949 78.5,99C 77.0692,98.5348 75.9025,97.7014 75,96.5C 72.5284,90.0852 69.8617,83.7519 67,77.5C 65.5951,73.9279 65.2617,70.2613 66,66.5C 67.4998,64.5313 69.3331,63.198 71.5,62.5 Z"/></g>
<g><path style="opacity:0.902" fill="#000000" d="M 23.5,99.5 C 26.941,99.3011 30.2744,99.8011 33.5,101C 39.7122,104.273 46.0456,107.273 52.5,110C 56.9258,115.441 56.2591,120.108 50.5,124C 48.1667,124.667 45.8333,124.667 43.5,124C 36.5858,120.474 29.5858,117.14 22.5,114C 19.6061,111.091 18.7728,107.591 20,103.5C 20.6897,101.65 21.8564,100.316 23.5,99.5 Z"/></g>
<g><path style="opacity:0.963" fill="#020202" d="M 372.5,214.5 C 369.351,214.789 366.351,214.289 363.5,213C 354.636,196.473 340.969,186.473 322.5,183C 312.745,182.305 303.079,182.639 293.5,184C 268.646,148.912 234.646,133.245 191.5,137C 162.223,141.169 138.89,155.002 121.5,178.5C 118.634,183.057 115.634,187.557 112.5,192C 91.7143,187.483 73.881,192.65 59,207.5C 49.9035,219.396 46.9035,232.73 50,247.5C 20.3457,268.77 9.34568,297.436 17,333.5C 23.7497,364.558 42.5831,383.391 73.5,390C 90.5,390.333 107.5,390.667 124.5,391C 127.59,392.707 129.59,395.207 130.5,398.5C 129.817,402.02 127.817,404.52 124.5,406C 105.802,406.888 87.1356,406.555 68.5,405C 37.3629,397.86 16.1962,379.36 5,349.5C 2.70496,342.486 0.871627,335.486 -0.5,328.5C -0.5,318.833 -0.5,309.167 -0.5,299.5C 3.42176,274.991 15.0884,254.991 34.5,239.5C 32.9815,218.032 40.6482,200.532 57.5,187C 49.66,151.487 61.66,125.154 93.5,108C 123.446,97.1964 149.613,103.03 172,125.5C 219.305,113.655 259.972,124.989 294,159.5C 295.833,162 297.667,164.5 299.5,167C 332.931,162.969 358.431,175.135 376,203.5C 377.337,208.084 376.171,211.751 372.5,214.5 Z"/></g>
<g><path style="opacity:1" fill="#dc924d" d="M 138.5,140.5 C 125.839,129.847 111.173,124.847 94.5,125.5C 105.174,118.863 116.84,116.696 129.5,119C 139.218,120.526 147.552,124.693 154.5,131.5C 149.503,135.001 144.17,138.001 138.5,140.5 Z"/></g>
<g><path style="opacity:1" fill="#ecbe48" d="M 94.5,125.5 C 111.173,124.847 125.839,129.847 138.5,140.5C 125.127,149.874 114.127,161.541 105.5,175.5C 98.1892,176.331 90.8559,176.831 83.5,177C 79.3334,177.872 75.3334,179.039 71.5,180.5C 66.9319,156.832 74.5985,138.498 94.5,125.5 Z"/></g>
<g><path style="opacity:1" fill="#a4ccee" d="M 372.5,214.5 C 374.79,220.954 375.79,227.62 375.5,234.5C 343.377,232.243 318.044,244.077 299.5,270C 277.797,269.587 262.464,279.087 253.5,298.5C 253.52,293.866 252.354,289.533 250,285.5C 224.279,229.23 181.446,193.564 121.5,178.5C 138.89,155.002 162.223,141.169 191.5,137C 234.646,133.245 268.646,148.912 293.5,184C 303.079,182.639 312.745,182.305 322.5,183C 340.969,186.473 354.636,196.473 363.5,213C 366.351,214.289 369.351,214.789 372.5,214.5 Z"/></g>
<g><path style="opacity:0.912" fill="#000000" d="M 13.5,151.5 C 21.903,151.13 30.2363,151.63 38.5,153C 42.5,157.667 42.5,162.333 38.5,167C 29.1667,167.667 19.8333,167.667 10.5,167C 6.78846,164.487 5.62179,160.987 7,156.5C 8.56314,153.977 10.7298,152.31 13.5,151.5 Z"/></g>
<g><path style="opacity:1" fill="#bce4f7" d="M 121.5,178.5 C 181.446,193.564 224.279,229.23 250,285.5C 252.354,289.533 253.52,293.866 253.5,298.5C 252.823,303.801 252.323,309.134 252,314.5C 233.791,329.949 226.458,349.616 230,373.5C 230.647,379.257 232.147,384.757 234.5,390C 208.167,390.333 181.833,390.667 155.5,391C 152.676,392.836 151.01,395.336 150.5,398.5C 143.833,398.5 137.167,398.5 130.5,398.5C 129.59,395.207 127.59,392.707 124.5,391C 107.5,390.667 90.5,390.333 73.5,390C 42.5831,383.391 23.7497,364.558 17,333.5C 9.34568,297.436 20.3457,268.77 50,247.5C 46.9035,232.73 49.9035,219.396 59,207.5C 73.881,192.65 91.7143,187.483 112.5,192C 115.634,187.557 118.634,183.057 121.5,178.5 Z"/></g>
<g><path style="opacity:0.969" fill="#010102" d="M 375.5,234.5 C 398.143,236.486 416.476,246.319 430.5,264C 451.239,262.244 467.739,269.744 480,286.5C 485.324,296.13 487.657,306.464 487,317.5C 499.546,328.279 507.713,341.612 511.5,357.5C 511.5,365.167 511.5,372.833 511.5,380.5C 503.065,411.254 482.732,426.921 450.5,427.5C 442.088,445.924 428.254,451.591 409,444.5C 385.557,457.96 361.057,460.127 335.5,451C 323.458,445.953 313.458,438.286 305.5,428C 292.657,428.175 279.99,426.842 267.5,424C 257.702,420.777 249.702,415.11 243.5,407C 214.5,406.667 185.5,406.333 156.5,406C 152.469,405.097 150.469,402.597 150.5,398.5C 151.01,395.336 152.676,392.836 155.5,391C 181.833,390.667 208.167,390.333 234.5,390C 232.147,384.757 230.647,379.257 230,373.5C 226.458,349.616 233.791,329.949 252,314.5C 252.323,309.134 252.823,303.801 253.5,298.5C 262.464,279.087 277.797,269.587 299.5,270C 318.044,244.077 343.377,232.243 375.5,234.5 Z"/></g>
<g><path style="opacity:1" fill="#669bc3" d="M 407.5,426.5 C 408.209,425.596 409.209,425.263 410.5,425.5C 418.578,358.209 397.578,302.043 347.5,257C 345.783,255.441 343.783,254.608 341.5,254.5C 364.288,246.253 385.955,248.753 406.5,262C 412.56,267.724 418.227,273.724 423.5,280C 439.723,276.521 453.556,280.688 465,292.5C 471.579,301.215 473.079,310.715 469.5,321C 469.625,322.627 470.125,324.127 471,325.5C 497.397,343.823 503.064,367.156 488,395.5C 481.959,403.202 474.125,408.035 464.5,410C 456.21,411.121 447.876,411.787 439.5,412C 438.333,413.167 437.167,414.333 436,415.5C 436.224,428.275 430.058,433.442 417.5,431C 414.772,428.135 411.438,426.635 407.5,426.5 Z"/></g>
<g><path style="opacity:1" fill="#87bbe3" d="M 341.5,254.5 C 343.783,254.608 345.783,255.441 347.5,257C 397.578,302.043 418.578,358.209 410.5,425.5C 409.209,425.263 408.209,425.596 407.5,426.5C 402.071,429.413 396.737,432.58 391.5,436C 359.146,447.547 332.812,439.547 312.5,412C 301.167,411.667 289.833,411.333 278.5,411C 260.083,405.58 248.916,393.413 245,374.5C 241.095,351.997 248.428,334.331 267,321.5C 264.22,303.872 271.053,292.039 287.5,286C 293.843,285.82 300.176,285.82 306.5,286C 311.409,278.421 317.075,271.421 323.5,265C 329.063,260.72 335.063,257.22 341.5,254.5 Z"/></g>
</svg>
