<?xml version="1.0" standalone="no"?>
<!DOCTYPE svg PUBLIC "-//W3C//DTD SVG 20010904//EN"
 "http://www.w3.org/TR/2001/REC-SVG-20010904/DTD/svg10.dtd">
<svg version="1.0" xmlns="http://www.w3.org/2000/svg"
 width="512.000000pt" height="512.000000pt" viewBox="0 0 512.000000 512.000000"
 preserveAspectRatio="xMidYMid meet">

<g transform="translate(0.000000,512.000000) scale(0.100000,-0.100000)"
fill="#000000" stroke="none">
<path d="M4122 4697 c-27 -29 -28 -67 -3 -98 19 -24 23 -24 189 -24 153 0 172
2 191 19 27 25 28 79 1 106 -18 18 -33 20 -188 20 -163 0 -169 -1 -190 -23z"/>
<path d="M4153 4093 c-50 -10 -70 -86 -33 -123 18 -18 33 -20 155 -20 125 0
136 1 155 22 37 40 22 98 -31 117 -30 10 -199 13 -246 4z"/>
<path d="M2880 2911 l0 -1110 -77 -40 c-195 -101 -331 -271 -384 -479 -26
-103 -26 -262 1 -366 65 -256 280 -471 535 -536 107 -28 261 -28 366 -1 148
38 299 133 390 245 66 81 133 217 154 311 26 115 17 293 -19 400 -67 196 -211
359 -390 441 l-56 25 0 1110 0 1109 -260 0 -260 0 0 -1109z"/>
<path d="M4126 3449 c-36 -28 -36 -80 0 -108 25 -20 39 -21 270 -21 133 0 250
3 259 6 45 18 48 111 5 134 -11 6 -123 10 -263 10 -232 0 -246 -1 -271 -21z"/>
<path d="M4120 2820 c-25 -25 -26 -71 -1 -101 17 -21 29 -24 120 -27 118 -5
165 2 192 29 25 25 24 69 -1 97 -19 21 -30 22 -155 22 -122 0 -137 -2 -155
-20z"/>
<path d="M4143 2210 c-46 -19 -57 -83 -20 -118 22 -21 33 -22 190 -22 154 0
169 2 187 20 30 30 27 83 -6 109 -24 19 -40 21 -178 20 -83 0 -161 -4 -173 -9z"/>
</g>
</svg>
