<?xml version="1.0" encoding="UTF-8"?>
<!DOCTYPE svg PUBLIC "-//W3C//DTD SVG 1.1//EN" "http://www.w3.org/Graphics/SVG/1.1/DTD/svg11.dtd">
<svg xmlns="http://www.w3.org/2000/svg" version="1.1" width="512px" height="512px" style="shape-rendering:geometricPrecision; text-rendering:geometricPrecision; image-rendering:optimizeQuality; fill-rule:evenodd; clip-rule:evenodd" xmlns:xlink="http://www.w3.org/1999/xlink">
<g><path style="opacity:0.954" fill="#f8e98e" d="M 305.5,31.5 C 308.187,31.3359 310.854,31.5026 313.5,32C 315.333,32.5 316.5,33.6667 317,35.5C 317.667,46.5 317.667,57.5 317,68.5C 316.5,70.3333 315.333,71.5 313.5,72C 308.744,73.4437 304.911,72.2771 302,68.5C 301.333,57.5 301.333,46.5 302,35.5C 303.032,33.9733 304.199,32.64 305.5,31.5 Z"/></g>
<g><path style="opacity:0.942" fill="#f8e98e" d="M 215.5,55.5 C 218.939,55.5887 221.772,56.9221 224,59.5C 228.333,67.1667 232.667,74.8333 237,82.5C 238.717,91.1156 235.217,94.949 226.5,94C 225.069,93.5348 223.903,92.7014 223,91.5C 218.08,83.3283 213.413,74.995 209,66.5C 208.103,60.9533 210.27,57.2866 215.5,55.5 Z"/></g>
<g><path style="opacity:0.942" fill="#f8e98e" d="M 400.5,55.5 C 408.217,55.9439 411.384,59.9439 410,67.5C 405.413,75.0045 401.08,82.6712 397,90.5C 391.514,96.0804 386.514,95.747 382,89.5C 381.333,87.1667 381.333,84.8333 382,82.5C 386.667,74.5 391.333,66.5 396,58.5C 397.409,57.2189 398.909,56.2189 400.5,55.5 Z"/></g>
<g><path style="opacity:1" fill="#dde9ed" d="M 230.5,135.5 C 219.917,145.41 211.25,156.744 204.5,169.5C 181.594,124.453 145.261,107.287 95.5,118C 88.2103,120.647 81.2103,123.814 74.5,127.5C 95.3784,96.2319 124.712,82.3986 162.5,86C 193.675,91.0632 216.341,107.563 230.5,135.5 Z"/></g>
<g><path style="opacity:0.995" fill="#f5ca43" d="M 428.5,212.5 C 428.553,218.592 428.386,224.926 428,231.5C 427.794,237.286 426.96,242.952 425.5,248.5C 376.346,256.068 336.513,240.401 306,201.5C 286.601,173.336 279.767,142.336 285.5,108.5C 339.526,99.5969 381.692,117.93 412,163.5C 420.598,178.793 426.098,195.127 428.5,212.5 Z"/></g>
<g><path style="opacity:1" fill="#f9b03c" d="M 285.5,108.5 C 279.767,142.336 286.601,173.336 306,201.5C 336.513,240.401 376.346,256.068 425.5,248.5C 422.423,264.407 416.423,279.074 407.5,292.5C 402.196,298.808 396.863,305.142 391.5,311.5C 359.813,282.025 323.147,273.692 281.5,286.5C 274.309,282.785 266.642,280.785 258.5,280.5C 254.869,238.899 233.869,209.899 195.5,193.5C 197.314,185.059 200.314,177.059 204.5,169.5C 211.25,156.744 219.917,145.41 230.5,135.5C 246.261,121.454 264.594,112.454 285.5,108.5 Z"/></g>
<g><path style="opacity:0.996" fill="#eff4f6" d="M 204.5,169.5 C 200.314,177.059 197.314,185.059 195.5,193.5C 155.086,179.858 119.419,187.525 88.5,216.5C 79.1856,226.439 71.8523,237.772 66.5,250.5C 57.3128,251.737 48.3128,253.737 39.5,256.5C 20.1281,243.582 12.9614,225.582 18,202.5C 25.0635,181.598 39.5635,170.265 61.5,168.5C 62.6012,153.747 66.9345,140.081 74.5,127.5C 81.2103,123.814 88.2103,120.647 95.5,118C 145.261,107.287 181.594,124.453 204.5,169.5 Z"/></g>
<g><path style="opacity:0.943" fill="#f8e98e" d="M 468.5,123.5 C 476.876,124.257 479.709,128.59 477,136.5C 469.256,142.291 461.089,147.458 452.5,152C 442.526,154.027 438.693,150.193 441,140.5C 449.845,134.169 459.011,128.502 468.5,123.5 Z"/></g>
<g><path style="opacity:1" fill="#a4d5dc" d="M 195.5,193.5 C 233.869,209.899 254.869,238.899 258.5,280.5C 266.642,280.785 274.309,282.785 281.5,286.5C 274.563,290.641 267.563,294.807 260.5,299C 255.59,302.746 251.257,306.913 247.5,311.5C 244.14,314.194 241.14,317.194 238.5,320.5C 229.539,313.196 219.206,309.53 207.5,309.5C 202.914,263.413 178.581,233.247 134.5,219C 119.583,215.087 104.583,214.587 89.5,217.5C 88.8933,217.376 88.56,217.043 88.5,216.5C 119.419,187.525 155.086,179.858 195.5,193.5 Z"/></g>
<g><path style="opacity:1" fill="#a4d5dd" d="M 428.5,212.5 C 448.268,230.71 458.935,253.377 460.5,280.5C 487.149,282.819 504.149,296.819 511.5,322.5C 511.5,329.5 511.5,336.5 511.5,343.5C 503.734,372.565 484.734,386.898 454.5,386.5C 466.791,356.543 459.457,332.709 432.5,315C 425.234,311.433 417.567,309.6 409.5,309.5C 409.377,303.762 408.71,298.096 407.5,292.5C 416.423,279.074 422.423,264.407 425.5,248.5C 426.96,242.952 427.794,237.286 428,231.5C 428.386,224.926 428.553,218.592 428.5,212.5 Z"/></g>
<g><path style="opacity:0.999" fill="#c4e1e8" d="M 238.5,320.5 C 233.325,328.018 228.991,336.018 225.5,344.5C 215.129,345.925 205.129,348.592 195.5,352.5C 188.208,348.187 180.541,344.354 172.5,341C 147.513,333.539 124.846,337.706 104.5,353.5C 94.1094,362.565 86.4428,373.565 81.5,386.5C 49.9531,390.617 25.4531,379.617 8,353.5C 4.04395,346.12 1.21062,338.453 -0.5,330.5C -0.5,322.833 -0.5,315.167 -0.5,307.5C 4.61307,284.054 17.9464,267.054 39.5,256.5C 48.3128,253.737 57.3128,251.737 66.5,250.5C 71.8523,237.772 79.1856,226.439 88.5,216.5C 88.56,217.043 88.8933,217.376 89.5,217.5C 104.583,214.587 119.583,215.087 134.5,219C 178.581,233.247 202.914,263.413 207.5,309.5C 219.206,309.53 229.539,313.196 238.5,320.5 Z"/></g>
<g><path style="opacity:0.951" fill="#f8e98e" d="M 466.5,216.5 C 477.172,216.333 487.839,216.5 498.5,217C 504.619,221.6 504.952,226.6 499.5,232C 488.167,232.667 476.833,232.667 465.5,232C 460.034,226.434 460.368,221.267 466.5,216.5 Z"/></g>
<g><path style="opacity:1" fill="#dde9ed" d="M 391.5,311.5 C 407.305,329.458 416.305,350.458 418.5,374.5C 424.738,374.392 430.738,375.559 436.5,378C 441.88,380.351 446.88,383.184 451.5,386.5C 469.504,404.501 474.004,425.501 465,449.5C 453.908,470.47 436.408,480.803 412.5,480.5C 419.311,463.721 419.145,447.054 412,430.5C 401.83,413.184 386.664,403.851 366.5,402.5C 362.92,362.515 342.92,334.015 306.5,317C 287.359,309.335 267.692,307.502 247.5,311.5C 251.257,306.913 255.59,302.746 260.5,299C 267.563,294.807 274.563,290.641 281.5,286.5C 323.147,273.692 359.813,282.025 391.5,311.5 Z"/></g>
<g><path style="opacity:1" fill="#c3e0e7" d="M 407.5,292.5 C 408.71,298.096 409.377,303.762 409.5,309.5C 417.567,309.6 425.234,311.433 432.5,315C 459.457,332.709 466.791,356.543 454.5,386.5C 453.5,386.5 452.5,386.5 451.5,386.5C 446.88,383.184 441.88,380.351 436.5,378C 430.738,375.559 424.738,374.392 418.5,374.5C 416.305,350.458 407.305,329.458 391.5,311.5C 396.863,305.142 402.196,298.808 407.5,292.5 Z"/></g>
<g><path style="opacity:1" fill="#eff4f6" d="M 315.5,295.5 C 340.407,295.208 361.573,303.875 379,321.5C 382.223,331.281 378.723,335.115 368.5,333C 358.196,321.845 345.529,314.845 330.5,312C 324.748,311.289 319.082,310.289 313.5,309C 311.496,306.159 310.996,302.993 312,299.5C 313.102,298.051 314.269,296.718 315.5,295.5 Z"/></g>
<g><path style="opacity:0.996" fill="#eff4f6" d="M 412.5,480.5 C 348.833,480.5 285.167,480.5 221.5,480.5C 253.299,471.922 266.799,451.256 262,418.5C 254.412,396.96 239.245,385.46 216.5,384C 211.841,372.004 204.507,362.004 194.5,354C 195.056,353.617 195.389,353.117 195.5,352.5C 205.129,348.592 215.129,345.925 225.5,344.5C 228.991,336.018 233.325,328.018 238.5,320.5C 241.14,317.194 244.14,314.194 247.5,311.5C 267.692,307.502 287.359,309.335 306.5,317C 342.92,334.015 362.92,362.515 366.5,402.5C 386.664,403.851 401.83,413.184 412,430.5C 419.145,447.054 419.311,463.721 412.5,480.5 Z"/></g>
<g><path style="opacity:1" fill="#dde9ed" d="M 195.5,352.5 C 195.389,353.117 195.056,353.617 194.5,354C 204.507,362.004 211.841,372.004 216.5,384C 239.245,385.46 254.412,396.96 262,418.5C 266.799,451.256 253.299,471.922 221.5,480.5C 219.833,480.5 218.167,480.5 216.5,480.5C 228.723,465.681 231.889,449.014 226,430.5C 217.576,411.093 202.742,400.593 181.5,399C 166.273,366.38 140.607,351.213 104.5,353.5C 124.846,337.706 147.513,333.539 172.5,341C 180.541,344.354 188.208,348.187 195.5,352.5 Z"/></g>
<g><path style="opacity:0.993" fill="#eff4f6" d="M 104.5,353.5 C 140.607,351.213 166.273,366.38 181.5,399C 202.742,400.593 217.576,411.093 226,430.5C 231.889,449.014 228.723,465.681 216.5,480.5C 168.832,480.667 121.166,480.5 73.5,480C 48.2162,472.948 38.0496,456.448 43,430.5C 48.9091,414.451 60.4091,405.451 77.5,403.5C 78.3281,397.688 79.6615,392.022 81.5,386.5C 86.4428,373.565 94.1094,362.565 104.5,353.5 Z"/></g>
</svg>
