<?xml version="1.0" encoding="UTF-8"?>
<!DOCTYPE svg PUBLIC "-//W3C//DTD SVG 1.1//EN" "http://www.w3.org/Graphics/SVG/1.1/DTD/svg11.dtd">
<svg xmlns="http://www.w3.org/2000/svg" version="1.1" width="512px" height="512px" style="shape-rendering:geometricPrecision; text-rendering:geometricPrecision; image-rendering:optimizeQuality; fill-rule:evenodd; clip-rule:evenodd" xmlns:xlink="http://www.w3.org/1999/xlink">
<g><path style="opacity:0.952" fill="#fabd01" d="M 153.5,5.5 C 158.223,4.55311 162.056,5.88644 165,9.5C 167.5,18.8333 170,28.1667 172.5,37.5C 171.039,45.1047 166.706,47.6047 159.5,45C 157.951,43.786 156.785,42.286 156,40.5C 152.549,30.3772 150.549,20.0438 150,9.5C 150.69,7.64977 151.856,6.31643 153.5,5.5 Z"/></g>
<g><path style="opacity:0.949" fill="#fabe01" d="M 232.5,5.5 C 239.775,3.9626 243.775,6.79594 244.5,14C 242.729,22.9173 240.562,31.7507 238,40.5C 235.154,45.7814 230.987,47.2814 225.5,45C 223.129,43.2568 221.795,40.9234 221.5,38C 223.61,28.3944 226.11,18.8944 229,9.5C 230.376,8.29493 231.542,6.9616 232.5,5.5 Z"/></g>
<g><path style="opacity:0.955" fill="#fabd01" d="M 86.5,44.5 C 88.9892,44.2978 91.3225,44.7978 93.5,46C 100.333,52.8333 107.167,59.6667 114,66.5C 115.591,77.9122 111.091,81.4122 100.5,77C 93.261,70.4313 86.761,63.2646 81,55.5C 80.1948,50.4436 82.0281,46.7769 86.5,44.5 Z"/></g>
<g><path style="opacity:0.975" fill="#fabc01" d="M 304.5,44.5 C 312.954,46.6833 315.121,51.6833 311,59.5C 305.167,65.3333 299.333,71.1667 293.5,77C 286.032,81.0676 281.032,79.0676 278.5,71C 279,69.5 279.5,68 280,66.5C 286.833,59.6667 293.667,52.8333 300.5,46C 302.058,45.79 303.391,45.29 304.5,44.5 Z"/></g>
<g><path style="opacity:0.995" fill="#fabd02" d="M 182.5,61.5 C 229.989,72.1567 257.823,101.49 266,149.5C 266.827,153.541 266.66,157.541 265.5,161.5C 227.75,143.94 192.083,147.44 158.5,172C 140.01,186.995 128.343,206.162 123.5,229.5C 110.309,215.79 101.809,199.457 98,180.5C 91.4252,129.811 110.592,92.6444 155.5,69C 164.143,65.1739 173.143,62.6739 182.5,61.5 Z"/></g>
<g><path style="opacity:1" fill="#f49a1c" d="M 289.5,201.5 C 272.911,186.043 253.245,177.376 230.5,175.5C 183.612,173.114 149.279,192.781 127.5,234.5C 126.167,232.833 124.833,231.167 123.5,229.5C 128.343,206.162 140.01,186.995 158.5,172C 192.083,147.44 227.75,143.94 265.5,161.5C 266.66,157.541 266.827,153.541 266,149.5C 257.823,101.49 229.989,72.1567 182.5,61.5C 221.501,57.2165 253.335,70.2165 278,100.5C 299.554,132.108 303.387,165.775 289.5,201.5 Z"/></g>
<g><path style="opacity:0.952" fill="#fabe01" d="M 45.5,113.5 C 56.8099,114.577 67.8099,117.077 78.5,121C 82.5,125.667 82.5,130.333 78.5,135C 76.9656,135.923 75.299,136.423 73.5,136.5C 63.3495,134.172 53.3495,131.338 43.5,128C 41.5715,124.744 41.0715,121.244 42,117.5C 42.6897,115.65 43.8564,114.316 45.5,113.5 Z"/></g>
<g><path style="opacity:0.942" fill="#fabe01" d="M 340.5,113.5 C 351.559,113.054 354.892,117.888 350.5,128C 340.515,131.439 330.349,134.272 320,136.5C 314.946,135.612 312.113,132.612 311.5,127.5C 312.005,124.812 313.338,122.645 315.5,121C 323.905,118.361 332.239,115.861 340.5,113.5 Z"/></g>
<g><path style="opacity:1" fill="#188aa5" d="M 230.5,175.5 C 253.245,177.376 272.911,186.043 289.5,201.5C 303.691,214.207 313.025,229.874 317.5,248.5C 304.849,257.785 296.682,270.119 293,285.5C 292.282,286.451 291.449,286.617 290.5,286C 295.249,226.784 268.916,190.118 211.5,176C 217.825,175.5 224.158,175.334 230.5,175.5 Z"/></g>
<g><path style="opacity:0.999" fill="#26a2b8" d="M 230.5,175.5 C 224.158,175.334 217.825,175.5 211.5,176C 268.916,190.118 295.249,226.784 290.5,286C 291.449,286.617 292.282,286.451 293,285.5C 296.682,270.119 304.849,257.785 317.5,248.5C 324.794,244.514 332.461,241.514 340.5,239.5C 377.988,250.761 396.155,276.094 395,315.5C 393.333,326.182 389.833,336.182 384.5,345.5C 372.988,345.172 361.654,345.505 350.5,346.5C 339.415,350.342 336.248,357.675 341,368.5C 343.416,371.423 346.25,373.757 349.5,375.5C 335.5,375.5 321.5,375.5 307.5,375.5C 317.63,370.567 320.464,362.9 316,352.5C 313.407,349.457 310.24,347.29 306.5,346C 301.316,345.184 296.316,345.35 291.5,346.5C 213.571,345.503 135.571,345.17 57.5,345.5C 57.1667,345.5 56.8333,345.5 56.5,345.5C 45.1899,321.362 48.0233,299.029 65,278.5C 69.5088,273.812 74.6754,270.145 80.5,267.5C 89.9786,262.964 99.9786,260.63 110.5,260.5C 113.748,260.901 116.915,261.568 120,262.5C 121.883,252.967 124.383,243.634 127.5,234.5C 149.279,192.781 183.612,173.114 230.5,175.5 Z"/></g>
<g><path style="opacity:0.959" fill="#fabe01" d="M 71.5,185.5 C 80.2128,185.719 83.3795,190.052 81,198.5C 80.1667,199.333 79.3333,200.167 78.5,201C 67.8128,205.091 56.8128,207.424 45.5,208C 44.5838,207.626 43.7504,207.126 43,206.5C 40.3786,201.271 41.2119,196.771 45.5,193C 54.3744,190.786 63.0411,188.286 71.5,185.5 Z"/></g>
<g><path style="opacity:0.953" fill="#fabe01" d="M 318.5,185.5 C 328.559,187.681 338.559,190.181 348.5,193C 352.788,196.771 353.621,201.271 351,206.5C 347.405,208.456 343.572,208.956 339.5,208C 331.398,205.975 323.398,203.642 315.5,201C 312.028,197.627 311.195,193.793 313,189.5C 314.5,187.531 316.333,186.198 318.5,185.5 Z"/></g>
<g><path style="opacity:1" fill="#168aa5" d="M 409.5,347.5 C 401.294,345.716 392.961,345.05 384.5,345.5C 389.833,336.182 393.333,326.182 395,315.5C 396.155,276.094 377.988,250.761 340.5,239.5C 370.143,235.426 393.643,245.426 411,269.5C 421.795,287.647 424.461,306.981 419,327.5C 416.622,334.588 413.455,341.254 409.5,347.5 Z"/></g>
<g><path style="opacity:0.973" fill="#f7be06" d="M 110.5,260.5 C 99.9786,260.63 89.9786,262.964 80.5,267.5C 87.2617,259.235 94.595,251.401 102.5,244C 111.667,242.5 115.5,246.333 114,255.5C 112.824,257.196 111.657,258.862 110.5,260.5 Z"/></g>
<g><path style="opacity:0.998" fill="#d8ebf1" d="M 56.5,345.5 C 56.8333,345.5 57.1667,345.5 57.5,345.5C 128.999,346.333 200.666,346.833 272.5,347C 282.79,351.665 285.29,359.165 280,369.5C 277.886,372.121 275.386,374.121 272.5,375.5C 197.833,375.667 123.166,375.5 48.5,375C 39.2062,369.785 36.7062,362.285 41,352.5C 44.8534,347.324 50.0201,344.991 56.5,345.5 Z"/></g>
<g><path style="opacity:0.978" fill="#d8ebf2" d="M 460.5,345.5 C 472.41,350.668 475.244,359.001 469,370.5C 466.318,372.585 463.484,374.252 460.5,375.5C 451.234,374.901 446.234,369.901 445.5,360.5C 446.84,351.826 451.84,346.826 460.5,345.5 Z"/></g>
<g><path style="opacity:1" fill="#b2d5e1" d="M 57.5,345.5 C 135.571,345.17 213.571,345.503 291.5,346.5C 302.914,351.67 305.414,359.67 299,370.5C 296.83,372.823 294.33,374.49 291.5,375.5C 285.167,375.5 278.833,375.5 272.5,375.5C 275.386,374.121 277.886,372.121 280,369.5C 285.29,359.165 282.79,351.665 272.5,347C 200.666,346.833 128.999,346.333 57.5,345.5 Z"/></g>
<g><path style="opacity:1" fill="#188ba6" d="M 291.5,346.5 C 296.316,345.35 301.316,345.184 306.5,346C 310.24,347.29 313.407,349.457 316,352.5C 320.464,362.9 317.63,370.567 307.5,375.5C 302.167,375.5 296.833,375.5 291.5,375.5C 294.33,374.49 296.83,372.823 299,370.5C 305.414,359.67 302.914,351.67 291.5,346.5 Z"/></g>
<g><path style="opacity:1" fill="#d8ebf1" d="M 350.5,346.5 C 363.266,346.039 375.933,346.539 388.5,348C 397.007,355.384 397.674,363.384 390.5,372C 388.075,373.213 385.741,374.379 383.5,375.5C 372.167,375.5 360.833,375.5 349.5,375.5C 346.25,373.757 343.416,371.423 341,368.5C 336.248,357.675 339.415,350.342 350.5,346.5 Z"/></g>
<g><path style="opacity:1" fill="#bad8e4" d="M 350.5,346.5 C 361.654,345.505 372.988,345.172 384.5,345.5C 392.961,345.05 401.294,345.716 409.5,347.5C 415.568,353.425 417.068,360.425 414,368.5C 411.795,371.04 409.295,373.207 406.5,375C 398.841,375.5 391.174,375.666 383.5,375.5C 385.741,374.379 388.075,373.213 390.5,372C 397.674,363.384 397.007,355.384 388.5,348C 375.933,346.539 363.266,346.039 350.5,346.5 Z"/></g>
<g><path style="opacity:1" fill="#bed9e5" d="M 460.5,345.5 C 468.585,345.099 476.585,345.599 484.5,347C 492.75,352.849 494.583,360.349 490,369.5C 488.5,371 487,372.5 485.5,374C 477.251,375.406 468.917,375.906 460.5,375.5C 463.484,374.252 466.318,372.585 469,370.5C 475.244,359.001 472.41,350.668 460.5,345.5 Z"/></g>
<g><path style="opacity:0.96" fill="#d9ebf1" d="M 77.5,410.5 C 88.512,414.533 92.012,422.2 88,433.5C 84.6333,437.59 80.4666,440.256 75.5,441.5C 54.4974,441.667 33.4974,441.5 12.5,441C 6.28619,440.242 1.95285,437.076 -0.5,431.5C -0.5,427.833 -0.5,424.167 -0.5,420.5C 1.73934,415.766 5.40601,412.599 10.5,411C 32.8308,410.5 55.1642,410.333 77.5,410.5 Z"/></g>
<g><path style="opacity:0.955" fill="#d9ebf1" d="M 358.5,410.5 C 370.243,413.985 374.076,421.651 370,433.5C 367.025,437.048 363.525,439.714 359.5,441.5C 291.166,441.667 222.833,441.5 154.5,441C 141.385,436.262 138.218,427.762 145,415.5C 147.258,413.57 149.758,412.07 152.5,411C 221.166,410.5 289.833,410.333 358.5,410.5 Z"/></g>
<g><path style="opacity:0.963" fill="#d9ebf1" d="M 478.5,410.5 C 490.957,414.424 494.457,422.424 489,434.5C 485.527,438.252 481.36,440.586 476.5,441.5C 462.108,441.93 447.774,441.43 433.5,440C 424.015,434.911 421.515,427.411 426,417.5C 428.365,414.131 431.532,411.964 435.5,411C 449.829,410.5 464.163,410.333 478.5,410.5 Z"/></g>
<g><path style="opacity:1" fill="#bedae5" d="M 77.5,410.5 C 85.5852,410.099 93.5852,410.599 101.5,412C 110.644,418.079 112.478,425.912 107,435.5C 105.269,437.617 103.102,439.117 100.5,440C 92.2363,441.37 83.903,441.87 75.5,441.5C 80.4666,440.256 84.6333,437.59 88,433.5C 92.012,422.2 88.512,414.533 77.5,410.5 Z"/></g>
<g><path style="opacity:1" fill="#bedae5" d="M 358.5,410.5 C 366.917,410.094 375.251,410.594 383.5,412C 392.967,418.065 394.801,425.898 389,435.5C 387.269,437.617 385.102,439.117 382.5,440C 374.905,441.356 367.238,441.856 359.5,441.5C 363.525,439.714 367.025,437.048 370,433.5C 374.076,421.651 370.243,413.985 358.5,410.5 Z"/></g>
<g><path style="opacity:1" fill="#bedae5" d="M 478.5,410.5 C 485.841,410.334 493.174,410.5 500.5,411C 505.594,412.599 509.261,415.766 511.5,420.5C 511.5,424.167 511.5,427.833 511.5,431.5C 509.685,435.479 506.685,438.312 502.5,440C 493.902,441.376 485.235,441.876 476.5,441.5C 481.36,440.586 485.527,438.252 489,434.5C 494.457,422.424 490.957,414.424 478.5,410.5 Z"/></g>
<g><path style="opacity:0.998" fill="#d9ebf2" d="M 227.5,475.5 C 239.457,479.751 242.957,487.751 238,499.5C 235.002,502.738 231.502,505.071 227.5,506.5C 175.499,506.667 123.499,506.5 71.5,506C 63.6573,504.151 59.324,499.151 58.5,491C 59.324,482.849 63.6573,477.849 71.5,476C 123.499,475.5 175.499,475.333 227.5,475.5 Z"/></g>
<g><path style="opacity:0.996" fill="#d9ebf2" d="M 414.5,475.5 C 426.451,479.74 429.951,487.74 425,499.5C 422.002,502.738 418.502,505.071 414.5,506.5C 382.498,506.667 350.498,506.5 318.5,506C 310.692,504.052 306.692,499.052 306.5,491C 306.692,482.948 310.692,477.948 318.5,476C 350.498,475.5 382.498,475.333 414.5,475.5 Z"/></g>
<g><path style="opacity:1" fill="#bedae5" d="M 227.5,475.5 C 235.585,475.099 243.585,475.599 251.5,477C 257.77,479.535 260.77,484.202 260.5,491C 260.77,497.798 257.77,502.465 251.5,505C 243.585,506.401 235.585,506.901 227.5,506.5C 231.502,505.071 235.002,502.738 238,499.5C 242.957,487.751 239.457,479.751 227.5,475.5 Z"/></g>
<g><path style="opacity:1" fill="#bedae5" d="M 414.5,475.5 C 422.585,475.099 430.585,475.599 438.5,477C 447.122,481.86 449.622,489.026 446,498.5C 444.235,501.473 441.735,503.64 438.5,505C 430.585,506.401 422.585,506.901 414.5,506.5C 418.502,505.071 422.002,502.738 425,499.5C 429.951,487.74 426.451,479.74 414.5,475.5 Z"/></g>
</svg>
