<?xml version="1.0" encoding="UTF-8"?>
<!DOCTYPE svg PUBLIC "-//W3C//DTD SVG 1.1//EN" "http://www.w3.org/Graphics/SVG/1.1/DTD/svg11.dtd">
<svg xmlns="http://www.w3.org/2000/svg" version="1.1" width="512px" height="512px" style="shape-rendering:geometricPrecision; text-rendering:geometricPrecision; image-rendering:optimizeQuality; fill-rule:evenodd; clip-rule:evenodd" xmlns:xlink="http://www.w3.org/1999/xlink">
<g><path style="opacity:1" fill="#bed9fd" d="M 251.5,-0.5 C 262.833,-0.5 274.167,-0.5 285.5,-0.5C 311.016,3.25416 334.35,12.5875 355.5,27.5C 378.876,46.8942 395.876,70.8942 406.5,99.5C 416.608,132.823 415.608,165.823 403.5,198.5C 392.243,199.643 380.909,199.81 369.5,199C 369,198.5 368.5,198 368,197.5C 387.417,137.23 375.25,84.3969 331.5,39C 308.325,18.0786 281.325,5.24524 250.5,0.5C 251.167,0.5 251.5,0.166667 251.5,-0.5 Z"/></g>
<g><path style="opacity:0.989" fill="#dcebfd" d="M 396.5,-0.5 C 403.833,-0.5 411.167,-0.5 418.5,-0.5C 443.938,5.43527 460.104,21.1019 467,46.5C 486.419,45.4298 497.585,54.4298 500.5,73.5C 500.064,84.8745 494.73,93.0412 484.5,98C 458.551,99.4635 432.551,99.9635 406.5,99.5C 395.876,70.8942 378.876,46.8942 355.5,27.5C 365.402,12.5891 379.069,3.25581 396.5,-0.5 Z"/></g>
<g><path style="opacity:0.995" fill="#dceafd" d="M 250.5,0.5 C 281.325,5.24524 308.325,18.0786 331.5,39C 375.25,84.3969 387.417,137.23 368,197.5C 368.5,198 369,198.5 369.5,199C 380.909,199.81 392.243,199.643 403.5,198.5C 410.167,198.5 416.833,198.5 423.5,198.5C 455.756,204.596 467.923,223.596 460,255.5C 452.503,270.664 440.336,278.998 423.5,280.5C 306.5,280.667 189.5,280.5 72.5,280C 34.1905,273.188 13.5239,250.355 10.5,211.5C 13.772,171.73 35.1054,148.896 74.5,143C 89.8333,142.667 105.167,142.333 120.5,142C 121.701,141.097 122.535,139.931 123,138.5C 127.623,80.3747 155.789,38.208 207.5,12C 221.215,5.82144 235.548,1.9881 250.5,0.5 Z"/></g>
<g><path style="opacity:1" fill="#bed9fd" d="M 423.5,198.5 C 438.873,198.121 454.206,198.621 469.5,200C 488.967,205.97 499.3,219.137 500.5,239.5C 498.555,261.945 486.555,275.445 464.5,280C 450.837,280.5 437.171,280.667 423.5,280.5C 440.336,278.998 452.503,270.664 460,255.5C 467.923,223.596 455.756,204.596 423.5,198.5 Z"/></g>
<g><path style="opacity:0.988" fill="#74cff9" d="M 73.5,364.5 C 80.9726,364.139 88.306,364.972 95.5,367C 109.059,371.78 122.392,377.113 135.5,383C 142.615,386.474 149.949,387.141 157.5,385C 170.581,379.862 183.581,374.529 196.5,369C 209.954,363.914 223.621,363.248 237.5,367C 249.994,371.609 262.327,376.609 274.5,382C 279.848,384.117 285.348,385.617 291,386.5C 295.648,385.952 300.148,384.785 304.5,383C 320.324,375.587 336.657,369.587 353.5,365C 366.337,363.767 378.67,365.767 390.5,371C 406.838,379.009 423.838,385.009 441.5,389C 448.714,393.963 451.214,400.797 449,409.5C 444.69,419.24 437.19,423.073 426.5,421C 409.235,416.703 392.568,410.703 376.5,403C 371.58,401.193 366.58,399.693 361.5,398.5C 343.078,405.03 324.744,411.864 306.5,419C 293.638,422.559 280.971,421.892 268.5,417C 252.671,409.831 236.504,403.664 220,398.5C 216.901,399.455 213.734,400.289 210.5,401C 196.58,406.862 182.58,412.529 168.5,418C 152.475,423.15 136.808,422.15 121.5,415C 104.502,406.668 86.8352,400.335 68.5,396C 61.9153,390.643 59.7486,383.809 62,375.5C 64.4373,370.226 68.2706,366.56 73.5,364.5 Z"/></g>
<g><path style="opacity:0.988" fill="#74cff9" d="M 438.5,511.5 C 433.167,511.5 427.833,511.5 422.5,511.5C 407.163,506.843 392.163,501.01 377.5,494C 372.306,491.991 366.973,490.491 361.5,489.5C 357.042,490.198 352.709,491.365 348.5,493C 332.727,500.085 316.727,506.252 300.5,511.5C 294.167,511.5 287.833,511.5 281.5,511.5C 264.18,506.187 247.18,499.687 230.5,492C 227.093,490.773 223.593,489.94 220,489.5C 214.726,490.591 209.559,492.091 204.5,494C 189.733,500.75 174.733,506.583 159.5,511.5C 152.833,511.5 146.167,511.5 139.5,511.5C 123.269,506.251 107.269,500.084 91.5,493C 85.71,490.719 79.71,489.386 73.5,489C 63.2334,484.902 59.4,477.402 62,466.5C 65.0963,459.242 70.5963,455.242 78.5,454.5C 83.5115,455.252 88.5115,456.085 93.5,457C 108.15,461.883 122.484,467.55 136.5,474C 140.558,475.556 144.725,476.723 149,477.5C 152.518,476.745 156.018,475.912 159.5,475C 173.42,469.138 187.42,463.471 201.5,458C 207.577,456.325 213.744,455.159 220,454.5C 226.256,455.159 232.423,456.325 238.5,458C 250.994,462.609 263.327,467.609 275.5,473C 280.551,474.906 285.718,476.406 291,477.5C 296.282,476.406 301.449,474.906 306.5,473C 318.673,467.609 331.006,462.609 343.5,458C 359.906,453.302 375.906,454.635 391.5,462C 407.766,470.199 424.766,476.199 442.5,480C 449.991,486.994 451.491,495.16 447,504.5C 444.559,507.454 441.725,509.787 438.5,511.5 Z"/></g>
</svg>
