<?xml version="1.0" encoding="UTF-8"?>
<!DOCTYPE svg PUBLIC "-//W3C//DTD SVG 1.1//EN" "http://www.w3.org/Graphics/SVG/1.1/DTD/svg11.dtd">
<svg xmlns="http://www.w3.org/2000/svg" version="1.1" width="512px" height="512px" style="shape-rendering:geometricPrecision; text-rendering:geometricPrecision; image-rendering:optimizeQuality; fill-rule:evenodd; clip-rule:evenodd" xmlns:xlink="http://www.w3.org/1999/xlink">
<g><path style="opacity:1" fill="#4cb4cc" d="M 502.5,216.5 C 492.494,181.325 470.828,156.159 437.5,141C 436.5,140.333 435.5,140.333 434.5,141C 429.82,152.68 422.487,162.347 412.5,170C 410.945,171.289 409.279,171.956 407.5,172C 414.902,153.69 415.402,135.19 409,116.5C 398.136,94.6505 380.636,81.4839 356.5,77C 340.304,74.7387 325.304,77.9054 311.5,86.5C 311.167,86.1667 310.833,85.8333 310.5,85.5C 315.708,75.9633 322.374,67.6299 330.5,60.5C 290.252,28.8061 247.586,25.3061 202.5,50C 197.328,53.0852 192.328,56.4186 187.5,60C 181.608,65.399 175.608,70.5657 169.5,75.5C 163.032,74.2601 156.698,72.9268 150.5,71.5C 178.629,24.4331 220.296,3.26647 275.5,8C 306.797,12.1453 332.797,25.9787 353.5,49.5C 391.035,41.9448 418.202,55.2781 435,89.5C 437.276,95.7156 439.109,102.049 440.5,108.5C 487.557,129.274 508.224,165.274 502.5,216.5 Z"/></g>
<g><path style="opacity:0.999" fill="#7fdbe7" d="M 502.5,216.5 C 492.409,260.091 465.409,286.258 421.5,295C 305.833,295.667 190.167,295.667 74.5,295C 39.398,287.957 17.398,267.124 8.5,232.5C 17.7762,202.553 37.1096,181.886 66.5,170.5C 68.2204,180.94 72.3871,190.273 79,198.5C 77.761,144.756 102.928,110.589 154.5,96C 169.815,93.0623 185.148,92.7289 200.5,95C 191.384,86.4488 181.051,79.9488 169.5,75.5C 175.608,70.5657 181.608,65.399 187.5,60C 192.328,56.4186 197.328,53.0852 202.5,50C 247.586,25.3061 290.252,28.8061 330.5,60.5C 322.374,67.6299 315.708,75.9633 310.5,85.5C 310.833,85.8333 311.167,86.1667 311.5,86.5C 325.304,77.9054 340.304,74.7387 356.5,77C 380.636,81.4839 398.136,94.6505 409,116.5C 415.402,135.19 414.902,153.69 407.5,172C 409.279,171.956 410.945,171.289 412.5,170C 422.487,162.347 429.82,152.68 434.5,141C 435.5,140.333 436.5,140.333 437.5,141C 470.828,156.159 492.494,181.325 502.5,216.5 Z"/></g>
<g><path style="opacity:1" fill="#b9f7f8" d="M 150.5,71.5 C 156.698,72.9268 163.032,74.2601 169.5,75.5C 181.051,79.9488 191.384,86.4488 200.5,95C 185.148,92.7289 169.815,93.0623 154.5,96C 102.928,110.589 77.761,144.756 79,198.5C 72.3871,190.273 68.2204,180.94 66.5,170.5C 37.1096,181.886 17.7762,202.553 8.5,232.5C 2.80144,196.412 14.8014,167.912 44.5,147C 50.597,143.618 56.9303,140.784 63.5,138.5C 74.8943,93.3031 103.894,70.9698 150.5,71.5 Z"/></g>
<g><path style="opacity:1" fill="#baf7f8" d="M 248.5,119.5 C 290.672,119.327 316.839,139.66 327,180.5C 327.667,183.833 327.667,187.167 327,190.5C 305.258,156.386 274.424,143.219 234.5,151C 212.657,157.83 195.823,170.996 184,190.5C 185.745,157.74 201.911,135.24 232.5,123C 237.854,121.362 243.187,120.196 248.5,119.5 Z"/></g>
<g><path style="opacity:1" fill="#4cb4cc" d="M 451.5,199.5 C 465.833,199.331 472.333,206.331 471,220.5C 460.782,251.047 439.615,267.881 407.5,271C 359.5,271.667 311.5,271.667 263.5,271C 253.406,266.644 249.906,259.144 253,248.5C 255.222,244.612 258.388,241.779 262.5,240C 310.5,239.667 358.5,239.333 406.5,239C 425.63,236.206 437.463,225.373 442,206.5C 444.79,203.535 447.957,201.202 451.5,199.5 Z"/></g>
<g><path style="opacity:1" fill="#4cb4cc" d="M 169.5,239.5 C 185.503,239.333 201.503,239.5 217.5,240C 227.978,242.824 232.478,249.657 231,260.5C 229.141,265.693 225.641,269.193 220.5,271C 203.433,271.957 186.433,271.624 169.5,270C 159.633,264.449 157.133,256.615 162,246.5C 164.015,243.588 166.515,241.255 169.5,239.5 Z"/></g>
<g><path style="opacity:0.992" fill="#56b8e6" d="M 143.5,377.5 C 140.49,400.338 128.157,407.838 106.5,400C 99.4715,394.049 95.8048,386.549 95.5,377.5C 102.986,363.194 110.986,349.194 119.5,335.5C 128.014,349.194 136.014,363.194 143.5,377.5 Z"/></g>
<g><path style="opacity:0.992" fill="#56b8e6" d="M 279.5,377.5 C 276.49,400.338 264.157,407.838 242.5,400C 235.471,394.049 231.805,386.549 231.5,377.5C 238.986,363.194 246.986,349.194 255.5,335.5C 264.014,349.194 272.014,363.194 279.5,377.5 Z"/></g>
<g><path style="opacity:0.993" fill="#56b8e6" d="M 415.5,377.5 C 412.49,400.338 400.157,407.838 378.5,400C 371.471,394.049 367.805,386.549 367.5,377.5C 374.986,363.194 382.986,349.194 391.5,335.5C 400.014,349.194 408.014,363.194 415.5,377.5 Z"/></g>
<g><path style="opacity:1" fill="#2c97cc" d="M 95.5,377.5 C 95.8048,386.549 99.4715,394.049 106.5,400C 128.157,407.838 140.49,400.338 143.5,377.5C 151.511,387.573 153.677,398.907 150,411.5C 142.204,427.649 129.371,434.149 111.5,431C 92.5035,424.511 84.6702,411.344 88,391.5C 89.7509,386.326 92.2509,381.659 95.5,377.5 Z"/></g>
<g><path style="opacity:1" fill="#2c97cc" d="M 231.5,377.5 C 231.805,386.549 235.471,394.049 242.5,400C 264.157,407.838 276.49,400.338 279.5,377.5C 287.511,387.573 289.677,398.907 286,411.5C 278.204,427.649 265.371,434.149 247.5,431C 228.504,424.511 220.67,411.344 224,391.5C 225.751,386.326 228.251,381.659 231.5,377.5 Z"/></g>
<g><path style="opacity:1" fill="#2c96cc" d="M 367.5,377.5 C 367.805,386.549 371.471,394.049 378.5,400C 400.157,407.838 412.49,400.338 415.5,377.5C 423.511,387.573 425.677,398.907 422,411.5C 414.204,427.649 401.371,434.149 383.5,431C 364.504,424.511 356.67,411.344 360,391.5C 361.751,386.326 364.251,381.659 367.5,377.5 Z"/></g>
<g><path style="opacity:0.987" fill="#3b9ad3" d="M 206.5,455.5 C 209.093,470.654 202.76,478.988 187.5,480.5C 172.245,479.001 165.912,470.668 168.5,455.5C 174.017,444.323 180.351,433.657 187.5,423.5C 194.649,433.657 200.983,444.323 206.5,455.5 Z"/></g>
<g><path style="opacity:0.987" fill="#3b9ad3" d="M 342.5,455.5 C 345.093,470.654 338.76,478.988 323.5,480.5C 308.245,479.001 301.912,470.668 304.5,455.5C 310.017,444.323 316.351,433.657 323.5,423.5C 330.649,433.657 336.983,444.323 342.5,455.5 Z"/></g>
<g><path style="opacity:1" fill="#076aa1" d="M 168.5,455.5 C 165.912,470.668 172.245,479.001 187.5,480.5C 202.76,478.988 209.093,470.654 206.5,455.5C 217.033,467.619 218.2,480.619 210,494.5C 197.893,504.707 184.726,506.207 170.5,499C 160.9,491.877 157.4,482.377 160,470.5C 161.835,464.819 164.668,459.819 168.5,455.5 Z"/></g>
<g><path style="opacity:1" fill="#076aa1" d="M 304.5,455.5 C 301.912,470.668 308.245,479.001 323.5,480.5C 338.76,478.988 345.093,470.654 342.5,455.5C 353.033,467.619 354.2,480.619 346,494.5C 333.893,504.707 320.726,506.207 306.5,499C 296.9,491.877 293.4,482.377 296,470.5C 297.835,464.819 300.668,459.819 304.5,455.5 Z"/></g>
</svg>
