<?xml version="1.0" encoding="UTF-8"?>
<!DOCTYPE svg PUBLIC "-//W3C//DTD SVG 1.1//EN" "http://www.w3.org/Graphics/SVG/1.1/DTD/svg11.dtd">
<svg xmlns="http://www.w3.org/2000/svg" version="1.1" width="512px" height="512px" style="shape-rendering:geometricPrecision; text-rendering:geometricPrecision; image-rendering:optimizeQuality; fill-rule:evenodd; clip-rule:evenodd" xmlns:xlink="http://www.w3.org/1999/xlink">
<g><path style="opacity:0.974" fill="#010202" d="M 262.5,-0.5 C 271.167,-0.5 279.833,-0.5 288.5,-0.5C 332.759,9.93906 356.926,37.9391 361,83.5C 362.122,85.6238 363.622,87.4571 365.5,89C 369.388,87.1955 373.388,85.1955 377.5,83C 403.031,74.7533 423.864,81.2533 440,102.5C 444.836,110.506 447.336,119.173 447.5,128.5C 471.988,128.315 489.155,139.315 499,161.5C 500.606,166.515 499.106,170.181 494.5,172.5C 492.011,172.702 489.677,172.202 487.5,171C 483.642,161.97 477.642,154.637 469.5,149C 460.949,145.148 451.949,143.481 442.5,144C 438,142.167 434.833,139 433,134.5C 432.043,110.546 419.71,97.2126 396,94.5C 391.99,94.5031 388.156,95.3364 384.5,97C 379.627,99.936 374.627,102.603 369.5,105C 360.05,106.021 353.217,102.188 349,93.5C 345.144,89.4674 340.644,86.4674 335.5,84.5C 309.244,74.1971 288.744,81.1971 274,105.5C 270.158,114.758 268.491,124.424 269,134.5C 267.167,139 264,142.167 259.5,144C 234.776,148.058 223.609,162.558 226,187.5C 230.376,201.877 239.876,210.71 254.5,214C 264.828,214.5 275.161,214.666 285.5,214.5C 342.501,214.667 399.501,214.5 456.5,214C 461.921,212.973 466.921,210.973 471.5,208C 476.612,203.464 481.279,198.464 485.5,193C 488.146,192.503 490.813,192.336 493.5,192.5C 496.22,195.678 497.054,199.345 496,203.5C 488.09,217.403 476.256,225.903 460.5,229C 360.167,229.667 259.833,229.667 159.5,229C 157.266,227.362 155.933,225.195 155.5,222.5C 156.041,219.251 157.708,216.751 160.5,215C 181.833,214.667 203.167,214.333 224.5,214C 211.302,199.003 207.469,181.837 213,162.5C 220.772,143.896 234.605,132.896 254.5,129.5C 254.901,98.6021 269.568,77.7687 298.5,67C 313.932,62.6526 328.765,64.1526 343,71.5C 340.476,53.1698 331.642,38.8365 316.5,28.5C 299.528,15.8393 280.528,11.6727 259.5,16C 250.84,18.3266 242.84,21.9932 235.5,27C 227.239,33.7593 219.905,41.2593 213.5,49.5C 207.6,51.6424 201.6,51.9758 195.5,50.5C 176.243,34.7774 155.243,32.2774 132.5,43C 113.501,55.1533 104.001,72.6533 104,95.5C 101.414,101.088 97.2469,104.921 91.5,107C 57.0113,104.859 35.5113,120.359 27,153.5C 25.7551,181.85 38.2551,201.35 64.5,212C 67.7568,213.043 71.0901,213.543 74.5,213.5C 93.3289,214.332 112.329,214.832 131.5,215C 134.278,216.713 135.945,219.213 136.5,222.5C 136.067,225.195 134.734,227.362 132.5,229C 111.833,229.667 91.1667,229.667 70.5,229C 38.3333,222.167 18.8333,202.667 12,170.5C 8.86152,140.281 20.0282,117.114 45.5,101C 58.9442,93.9769 73.2776,90.6436 88.5,91C 92.7433,47.9233 116.41,24.4233 159.5,20.5C 176.007,20.89 190.673,26.2234 203.5,36.5C 211.708,26.7933 221.041,18.2933 231.5,11C 241.326,5.45107 251.659,1.61774 262.5,-0.5 Z"/></g>
<g><path style="opacity:1" fill="#b0d9fa" d="M 316.5,28.5 C 300.354,29.9073 286.02,35.7407 273.5,46C 267.584,51.8925 261.917,57.8925 256.5,64C 253.167,64.6667 249.833,64.6667 246.5,64C 236.841,56.1672 225.841,51.3339 213.5,49.5C 219.905,41.2593 227.239,33.7593 235.5,27C 242.84,21.9932 250.84,18.3266 259.5,16C 280.528,11.6727 299.528,15.8393 316.5,28.5 Z"/></g>
<g><path style="opacity:1" fill="#deeaf9" d="M 316.5,28.5 C 331.642,38.8365 340.476,53.1698 343,71.5C 328.765,64.1526 313.932,62.6526 298.5,67C 269.568,77.7687 254.901,98.6021 254.5,129.5C 234.605,132.896 220.772,143.896 213,162.5C 207.469,181.837 211.302,199.003 224.5,214C 203.167,214.333 181.833,214.667 160.5,215C 157.708,216.751 156.041,219.251 155.5,222.5C 149.167,222.5 142.833,222.5 136.5,222.5C 135.945,219.213 134.278,216.713 131.5,215C 112.329,214.832 93.3289,214.332 74.5,213.5C 75.2389,213.631 75.9056,213.464 76.5,213C 61.1439,183.948 65.1439,157.948 88.5,135C 103.801,123.234 121.134,117.901 140.5,119C 142.378,117.457 143.878,115.624 145,113.5C 146.533,80.1427 163.366,59.1427 195.5,50.5C 201.6,51.9758 207.6,51.6424 213.5,49.5C 225.841,51.3339 236.841,56.1672 246.5,64C 249.833,64.6667 253.167,64.6667 256.5,64C 261.917,57.8925 267.584,51.8925 273.5,46C 286.02,35.7407 300.354,29.9073 316.5,28.5 Z"/></g>
<g><path style="opacity:1" fill="#b0d9fa" d="M 195.5,50.5 C 163.366,59.1427 146.533,80.1427 145,113.5C 143.878,115.624 142.378,117.457 140.5,119C 121.134,117.901 103.801,123.234 88.5,135C 65.1439,157.948 61.1439,183.948 76.5,213C 75.9056,213.464 75.2389,213.631 74.5,213.5C 71.0901,213.543 67.7568,213.043 64.5,212C 38.2551,201.35 25.7551,181.85 27,153.5C 35.5113,120.359 57.0113,104.859 91.5,107C 97.2469,104.921 101.414,101.088 104,95.5C 104.001,72.6533 113.501,55.1533 132.5,43C 155.243,32.2774 176.243,34.7774 195.5,50.5 Z"/></g>
<g><path style="opacity:1" fill="#b0d9fa" d="M 335.5,84.5 C 320.086,98.3358 312.586,115.669 313,136.5C 283.46,141.935 269.46,159.601 271,189.5C 273.569,199.215 278.402,207.548 285.5,214.5C 275.161,214.666 264.828,214.5 254.5,214C 239.876,210.71 230.376,201.877 226,187.5C 223.609,162.558 234.776,148.058 259.5,144C 264,142.167 267.167,139 269,134.5C 268.491,124.424 270.158,114.758 274,105.5C 288.744,81.1971 309.244,74.1971 335.5,84.5 Z"/></g>
<g><path style="opacity:1" fill="#deeaf9" d="M 335.5,84.5 C 340.644,86.4674 345.144,89.4674 349,93.5C 353.217,102.188 360.05,106.021 369.5,105C 374.627,102.603 379.627,99.936 384.5,97C 388.156,95.3364 391.99,94.5031 396,94.5C 419.71,97.2126 432.043,110.546 433,134.5C 434.833,139 438,142.167 442.5,144C 451.949,143.481 460.949,145.148 469.5,149C 477.642,154.637 483.642,161.97 487.5,171C 489.677,172.202 492.011,172.702 494.5,172.5C 495.763,179.217 495.43,185.883 493.5,192.5C 490.813,192.336 488.146,192.503 485.5,193C 481.279,198.464 476.612,203.464 471.5,208C 466.921,210.973 461.921,212.973 456.5,214C 399.501,214.5 342.501,214.667 285.5,214.5C 278.402,207.548 273.569,199.215 271,189.5C 269.46,159.601 283.46,141.935 313,136.5C 312.586,115.669 320.086,98.3358 335.5,84.5 Z"/></g>
<g><path style="opacity:0.934" fill="#000000" d="M 142.5,246.5 C 148.706,245.178 152.539,247.511 154,253.5C 154.333,257.833 154.667,262.167 155,266.5C 158.145,261.349 162.478,257.683 168,255.5C 175.385,257.711 177.385,262.377 174,269.5C 167.667,277.167 161.333,284.833 155,292.5C 154.17,298.196 154.337,303.863 155.5,309.5C 160.082,306.959 164.582,304.293 169,301.5C 172.804,291.088 176.804,280.755 181,270.5C 186.033,266.221 190.7,266.554 195,271.5C 195.667,273.833 195.667,276.167 195,278.5C 193.361,281.742 192.361,285.076 192,288.5C 195.914,286.46 199.748,284.293 203.5,282C 212.501,280.671 216.001,284.504 214,293.5C 209.594,297.288 204.761,300.455 199.5,303C 204.22,303.786 208.886,304.786 213.5,306C 218.833,310.667 218.833,315.333 213.5,320C 201.151,319.902 188.984,318.402 177,315.5C 172.667,318.167 168.333,320.833 164,323.5C 163.911,325.113 164.745,326.28 166.5,327C 170.255,329.795 174.422,331.628 179,332.5C 189.221,331.064 199.388,329.397 209.5,327.5C 218.264,330.831 219.597,335.997 213.5,343C 208.833,344 204.167,345 199.5,346C 204.761,348.545 209.594,351.712 214,355.5C 216.166,362.489 213.666,366.489 206.5,367.5C 201.607,365.72 196.94,363.387 192.5,360.5C 192.167,360.833 191.833,361.167 191.5,361.5C 194.232,366.183 195.399,371.183 195,376.5C 192.774,380.861 189.274,382.361 184.5,381C 182.333,380.167 180.833,378.667 180,376.5C 176.333,366.833 172.667,357.167 169,347.5C 164.582,344.707 160.082,342.041 155.5,339.5C 154.337,345.137 154.17,350.804 155,356.5C 161.333,364.167 167.667,371.833 174,379.5C 177.66,389.68 174.16,393.846 163.5,392C 160.315,389.116 157.482,385.949 155,382.5C 154.841,387.916 154.174,393.25 153,398.5C 151.607,401.366 149.274,402.699 146,402.5C 142.726,402.699 140.393,401.366 139,398.5C 138.667,392.833 138.333,387.167 138,381.5C 135.203,385.299 132.036,388.799 128.5,392C 117.84,393.846 114.34,389.68 118,379.5C 124.667,371.5 131.333,363.5 138,355.5C 138.667,349.833 138.667,344.167 138,338.5C 133,341.5 128,344.5 123,347.5C 119.196,357.912 115.196,368.245 111,378.5C 105.559,382.926 100.892,382.259 97,376.5C 96.6015,371.183 97.7681,366.183 100.5,361.5C 100.167,361.167 99.8333,360.833 99.5,360.5C 95.2706,363.735 90.6039,366.068 85.5,367.5C 78.3343,366.489 75.8343,362.489 78,355.5C 82.4058,351.712 87.2391,348.545 92.5,346C 87.8333,345 83.1667,344 78.5,343C 72.4026,335.997 73.7359,330.831 82.5,327.5C 92.6119,329.397 102.779,331.064 113,332.5C 115.732,332.385 118.232,331.552 120.5,330C 123.672,328.248 126.672,326.248 129.5,324C 124.584,321.293 119.751,318.459 115,315.5C 103.016,318.402 90.849,319.902 78.5,320C 73.1667,315.333 73.1667,310.667 78.5,306C 83.1137,304.786 87.7804,303.786 92.5,303C 87.2391,300.455 82.4058,297.288 78,293.5C 76.3356,284.834 79.8356,281 88.5,282C 92.5766,283.787 96.41,285.954 100,288.5C 99.6395,285.076 98.6395,281.742 97,278.5C 95.8333,270.333 99.3333,266.833 107.5,268C 109.667,268.833 111.167,270.333 112,272.5C 115.667,282.167 119.333,291.833 123,301.5C 128,304.5 133,307.5 138,310.5C 138.667,304.833 138.667,299.167 138,293.5C 131.333,285.5 124.667,277.5 118,269.5C 114.458,259.054 117.958,254.887 128.5,257C 132.036,260.201 135.203,263.701 138,267.5C 138.333,261.833 138.667,256.167 139,250.5C 139.69,248.65 140.856,247.316 142.5,246.5 Z"/></g>
<g><path style="opacity:0.945" fill="#000000" d="M 271.5,250.5 C 292.806,249.306 302.306,259.306 300,280.5C 294.954,293.61 285.454,298.777 271.5,296C 258.17,291.186 252.67,281.686 255,267.5C 257.349,258.652 262.849,252.986 271.5,250.5 Z"/></g>
<g><path style="opacity:1" fill="#a7ceec" d="M 280.5,266.5 C 278.069,267.607 277.069,269.607 277.5,272.5C 277.67,274.529 278.004,276.529 278.5,278.5C 278.747,279.713 279.414,280.38 280.5,280.5C 272.846,282.022 269.346,278.688 270,270.5C 272.445,265.868 275.945,264.535 280.5,266.5 Z"/></g>
<g><path style="opacity:1" fill="#d5e1f0" d="M 280.5,266.5 C 285.574,269.202 286.741,273.202 284,278.5C 283.184,279.823 282.017,280.489 280.5,280.5C 279.414,280.38 278.747,279.713 278.5,278.5C 278.004,276.529 277.67,274.529 277.5,272.5C 277.069,269.607 278.069,267.607 280.5,266.5 Z"/></g>
<g><path style="opacity:0.944" fill="#000000" d="M 357.5,281.5 C 370.671,279.829 379.505,285.163 384,297.5C 385.158,317.006 375.991,325.506 356.5,323C 341.858,315.305 338.358,304.138 346,289.5C 349.482,286.161 353.315,283.494 357.5,281.5 Z"/></g>
<g><path style="opacity:1" fill="#aeceea" d="M 361.5,296.5 C 366.651,296.814 369.151,299.481 369,304.5C 365.74,309.285 362.073,309.619 358,305.5C 356.665,301.392 357.832,298.392 361.5,296.5 Z"/></g>
<g><path style="opacity:0.933" fill="#000000" d="M 314.5,511.5 C 311.833,511.5 309.167,511.5 306.5,511.5C 304.856,510.684 303.69,509.35 303,507.5C 302.667,499.5 302.333,491.5 302,483.5C 299.333,486.833 296.667,490.167 294,493.5C 291.795,496.04 289.295,498.207 286.5,500C 276.884,500.021 274.051,495.521 278,486.5C 286.239,477.018 294.239,467.351 302,457.5C 302.832,449.479 302.665,441.479 301.5,433.5C 294.833,437.5 288.167,441.5 281.5,445.5C 277,457.167 272.5,468.833 268,480.5C 263.814,487.538 258.814,488.205 253,482.5C 252.333,479.833 252.333,477.167 253,474.5C 255.304,469.261 256.97,463.928 258,458.5C 251.398,463.268 244.232,466.934 236.5,469.5C 231.632,469.135 228.966,466.469 228.5,461.5C 228.97,459.226 229.97,457.226 231.5,455.5C 237.833,451.667 244.167,447.833 250.5,444C 243.477,442.774 236.477,441.441 229.5,440C 224.167,435.333 224.167,430.667 229.5,426C 244.191,426.365 258.691,428.199 273,431.5C 279.833,427.333 286.667,423.167 293.5,419C 287.33,415.081 280.997,411.414 274.5,408C 260.755,408.956 247.089,410.79 233.5,413.5C 226.511,411.521 224.344,407.188 227,400.5C 227.903,399.299 229.069,398.465 230.5,398C 237.167,396.667 243.833,395.333 250.5,394C 244.167,390.333 237.833,386.667 231.5,383C 226.721,375.718 228.554,370.885 237,368.5C 244.255,371.628 251.255,375.295 258,379.5C 255.938,373 254.105,366.333 252.5,359.5C 252.719,354.778 255.219,352.112 260,351.5C 262.923,351.795 265.257,353.129 267,355.5C 271.735,367.873 276.569,380.206 281.5,392.5C 287.905,396.898 294.571,400.898 301.5,404.5C 302.665,396.521 302.832,388.521 302,380.5C 293.761,371.018 285.761,361.351 278,351.5C 274.399,341.11 277.899,336.943 288.5,339C 293,344.167 297.5,349.333 302,354.5C 302.333,346.5 302.667,338.5 303,330.5C 305.955,326.723 309.788,325.557 314.5,327C 316.049,328.214 317.215,329.714 318,331.5C 318.333,339.167 318.667,346.833 319,354.5C 323.152,348.016 328.318,342.516 334.5,338C 344.463,338.756 346.963,343.59 342,352.5C 333.955,361.542 326.289,370.876 319,380.5C 318.168,388.521 318.335,396.521 319.5,404.5C 325.67,400.581 332.003,396.914 338.5,393.5C 343.831,380.51 349.164,367.51 354.5,354.5C 358.667,350.583 362.833,350.583 367,354.5C 367.958,356.199 368.458,358.033 368.5,360C 366.958,366.625 364.625,372.959 361.5,379C 368.3,376.267 374.966,372.933 381.5,369C 389.708,368.548 392.875,372.381 391,380.5C 384.595,385.621 377.762,390.121 370.5,394C 377.157,395.333 383.824,396.666 390.5,398C 393.516,399.529 394.849,402.029 394.5,405.5C 394.227,410.44 391.561,413.106 386.5,413.5C 372.913,410.773 359.246,408.94 345.5,408C 339.33,411.919 332.997,415.586 326.5,419C 333.585,423.293 340.751,427.46 348,431.5C 362.292,428.077 376.792,426.244 391.5,426C 395.034,430.076 395.367,434.409 392.5,439C 385.024,441.414 377.357,443.081 369.5,444C 377.199,447.709 384.366,452.209 391,457.5C 392.717,466.116 389.217,469.949 380.5,469C 374.304,465.072 367.971,461.739 361.5,459C 365.517,466.042 367.684,473.542 368,481.5C 365.774,485.861 362.274,487.361 357.5,486C 355.333,485.167 353.833,483.667 353,481.5C 348.726,469.343 344.059,457.343 339,445.5C 332.499,441.248 325.832,437.248 319,433.5C 318.333,441.5 318.333,449.5 319,457.5C 326.094,466.684 333.427,475.684 341,484.5C 345.331,489.27 345.497,494.103 341.5,499C 338.2,500.879 334.866,500.879 331.5,499C 327.453,493.742 323.287,488.575 319,483.5C 318.667,491.167 318.333,498.833 318,506.5C 317.003,508.323 315.836,509.99 314.5,511.5 Z"/></g>
<g><path style="opacity:0.944" fill="#000101" d="M 118.5,417.5 C 133.136,415.559 142.636,421.559 147,435.5C 148.571,448.925 143.071,458.092 130.5,463C 109.152,464.652 99.6521,454.818 102,433.5C 104.778,425.22 110.278,419.887 118.5,417.5 Z"/></g>
<g><path style="opacity:1" fill="#a5ccea" d="M 126.5,433.5 C 125.028,435.117 124.361,437.117 124.5,439.5C 124.568,442.438 125.234,445.105 126.5,447.5C 121.024,448.733 117.691,446.4 116.5,440.5C 117.691,434.6 121.024,432.267 126.5,433.5 Z"/></g>
<g><path style="opacity:1" fill="#d9e5f5" d="M 126.5,433.5 C 130.083,434.422 131.75,436.756 131.5,440.5C 131.75,444.244 130.083,446.578 126.5,447.5C 125.234,445.105 124.568,442.438 124.5,439.5C 124.361,437.117 125.028,435.117 126.5,433.5 Z"/></g>
<g><path style="opacity:0.947" fill="#010101" d="M 188.5,511.5 C 183.5,511.5 178.5,511.5 173.5,511.5C 154.291,502.389 149.124,488.056 158,468.5C 169.05,455.498 182.217,452.998 197.5,461C 212.248,474.732 213.248,489.398 200.5,505C 196.793,507.913 192.793,510.079 188.5,511.5 Z"/></g>
<g><path style="opacity:1" fill="#abd3f2" d="M 184.5,472.5 C 183.127,472.343 181.793,472.51 180.5,473C 175.369,480.805 175.369,488.638 180.5,496.5C 171.461,494.444 167.961,488.778 170,479.5C 173.073,472.997 177.906,470.664 184.5,472.5 Z"/></g>
<g><path style="opacity:1" fill="#dce8f7" d="M 184.5,472.5 C 191.984,474.796 194.817,479.796 193,487.5C 190.949,493.377 186.783,496.377 180.5,496.5C 175.369,488.638 175.369,480.805 180.5,473C 181.793,472.51 183.127,472.343 184.5,472.5 Z"/></g>
</svg>
