<?xml version="1.0" encoding="UTF-8"?>
<!DOCTYPE svg PUBLIC "-//W3C//DTD SVG 1.1//EN" "http://www.w3.org/Graphics/SVG/1.1/DTD/svg11.dtd">
<svg xmlns="http://www.w3.org/2000/svg" version="1.1" width="512px" height="512px" style="shape-rendering:geometricPrecision; text-rendering:geometricPrecision; image-rendering:optimizeQuality; fill-rule:evenodd; clip-rule:evenodd" xmlns:xlink="http://www.w3.org/1999/xlink">
<g><path style="opacity:0.954" fill="#ffd346" d="M 251.5,-0.5 C 254.167,-0.5 256.833,-0.5 259.5,-0.5C 260.458,0.961599 261.624,2.29493 263,3.5C 263.667,19.8333 263.667,36.1667 263,52.5C 258,57.8333 253,57.8333 248,52.5C 247.333,36.1667 247.333,19.8333 248,3.5C 249.376,2.29493 250.542,0.961599 251.5,-0.5 Z"/></g>
<g><path style="opacity:0.91" fill="#fed346" d="M 128.5,32.5 C 132.803,31.7962 136.303,33.1295 139,36.5C 145.081,47.6633 151.414,58.6633 158,69.5C 162.426,79.4997 159.26,84.333 148.5,84C 147.5,83.1667 146.5,82.3333 145.5,81.5C 138.667,69.8333 131.833,58.1667 125,46.5C 122.133,40.6297 123.3,35.9631 128.5,32.5 Z"/></g>
<g><path style="opacity:0.91" fill="#fed346" d="M 376.5,32.5 C 385.207,32.0365 388.707,36.0365 387,44.5C 379.833,56.8333 372.667,69.1667 365.5,81.5C 359.466,86.1866 354.633,85.1866 351,78.5C 350.516,76.0871 350.85,73.7538 352,71.5C 358.92,59.9962 365.586,48.3295 372,36.5C 373.397,34.9297 374.897,33.5964 376.5,32.5 Z"/></g>
<g><path style="opacity:0.879" fill="#ffc639" d="M 239.5,111.5 C 250.167,110.167 260.833,110.167 271.5,111.5C 262.318,111.173 253.318,111.507 244.5,112.5C 242.708,112.634 241.042,112.301 239.5,111.5 Z"/></g>
<g><path style="opacity:0.995" fill="#ffd246" d="M 239.5,111.5 C 241.042,112.301 242.708,112.634 244.5,112.5C 289.141,119.332 323.641,141.665 348,179.5C 380.728,239.67 376.061,296.67 334,350.5C 310.278,377.034 280.778,393.034 245.5,398.5C 243.435,398.517 241.435,398.85 239.5,399.5C 181.07,391.54 140.904,360.206 119,305.5C 101.571,251.802 110.571,203.136 146,159.5C 171.037,131.731 202.204,115.731 239.5,111.5 Z"/></g>
<g><path style="opacity:1" fill="#ffbe31" d="M 244.5,112.5 C 253.318,111.507 262.318,111.173 271.5,111.5C 329.93,119.46 370.096,150.794 392,205.5C 411.873,270.527 396.373,325.36 345.5,370C 323.375,386.989 298.375,396.822 270.5,399.5C 261.983,399.826 253.65,399.493 245.5,398.5C 280.778,393.034 310.278,377.034 334,350.5C 376.061,296.67 380.728,239.67 348,179.5C 323.641,141.665 289.141,119.332 244.5,112.5 Z"/></g>
<g><path style="opacity:0.911" fill="#fed346" d="M 36.5,123.5 C 39.1873,123.336 41.854,123.503 44.5,124C 56.0038,130.92 67.6705,137.586 79.5,144C 86.3561,149.984 86.0228,155.317 78.5,160C 76.8333,160.667 75.1667,160.667 73.5,160C 60.0855,152.544 46.9188,144.711 34,136.5C 31.6062,131.527 32.4395,127.194 36.5,123.5 Z"/></g>
<g><path style="opacity:0.911" fill="#fed346" d="M 466.5,123.5 C 475.108,122.276 478.941,125.943 478,134.5C 477.215,136.286 476.049,137.786 474.5,139C 462.004,145.747 449.671,152.747 437.5,160C 429.382,161.035 425.882,157.535 427,149.5C 428.122,147.376 429.622,145.543 431.5,144C 443.558,137.645 455.225,130.811 466.5,123.5 Z"/></g>
<g><path style="opacity:0.946" fill="#fed346" d="M -0.5,259.5 C -0.5,256.833 -0.5,254.167 -0.5,251.5C 0.961599,250.542 2.29493,249.376 3.5,248C 19.8333,247.333 36.1667,247.333 52.5,248C 57.8333,253 57.8333,258 52.5,263C 36.1667,263.667 19.8333,263.667 3.5,263C 2.29493,261.624 0.961599,260.458 -0.5,259.5 Z"/></g>
<g><path style="opacity:0.946" fill="#fed346" d="M 511.5,251.5 C 511.5,254.167 511.5,256.833 511.5,259.5C 510.038,260.458 508.705,261.624 507.5,263C 491.167,263.667 474.833,263.667 458.5,263C 453.167,258 453.167,253 458.5,248C 474.833,247.333 491.167,247.333 507.5,248C 508.705,249.376 510.038,250.542 511.5,251.5 Z"/></g>
<g><path style="opacity:0.913" fill="#fed346" d="M 74.5,350.5 C 81.8077,350.639 84.9744,354.305 84,361.5C 82.8783,363.624 81.3783,365.457 79.5,367C 67.6705,373.414 56.0038,380.08 44.5,387C 35.8844,388.717 32.051,385.217 33,376.5C 33.7845,374.714 34.9512,373.214 36.5,372C 49.4234,365.045 62.09,357.878 74.5,350.5 Z"/></g>
<g><path style="opacity:0.913" fill="#fed346" d="M 432.5,350.5 C 435.688,350.618 438.688,351.451 441.5,353C 452.337,359.586 463.337,365.919 474.5,372C 479.833,377 479.833,382 474.5,387C 471.833,387.667 469.167,387.667 466.5,387C 453.25,379.794 440.416,371.961 428,363.5C 425.542,357.757 427.042,353.424 432.5,350.5 Z"/></g>
<g><path style="opacity:0.877" fill="#ffc438" d="M 245.5,398.5 C 253.65,399.493 261.983,399.826 270.5,399.5C 260.167,400.833 249.833,400.833 239.5,399.5C 241.435,398.85 243.435,398.517 245.5,398.5 Z"/></g>
<g><path style="opacity:0.912" fill="#fed346" d="M 149.5,426.5 C 158.555,426.624 161.722,430.958 159,439.5C 152.08,451.004 145.414,462.671 139,474.5C 133.924,479.756 128.924,479.756 124,474.5C 123.333,471.833 123.333,469.167 124,466.5C 130.92,454.996 137.586,443.329 144,431.5C 145.73,429.598 147.563,427.931 149.5,426.5 Z"/></g>
<g><path style="opacity:0.912" fill="#fed346" d="M 356.5,426.5 C 360.95,426.142 364.45,427.808 367,431.5C 373.081,442.663 379.414,453.663 386,464.5C 389.736,474.079 386.569,478.579 376.5,478C 374.714,477.215 373.214,476.049 372,474.5C 365.919,463.337 359.586,452.337 353,441.5C 349.002,435.163 350.169,430.163 356.5,426.5 Z"/></g>
<g><path style="opacity:0.954" fill="#ffd346" d="M 259.5,511.5 C 256.833,511.5 254.167,511.5 251.5,511.5C 250.542,510.038 249.376,508.705 248,507.5C 247.333,491.167 247.333,474.833 248,458.5C 253,453.167 258,453.167 263,458.5C 263.667,474.833 263.667,491.167 263,507.5C 261.624,508.705 260.458,510.038 259.5,511.5 Z"/></g>
</svg>
