<?xml version="1.0" encoding="UTF-8"?>
<!DOCTYPE svg PUBLIC "-//W3C//DTD SVG 1.1//EN" "http://www.w3.org/Graphics/SVG/1.1/DTD/svg11.dtd">
<svg xmlns="http://www.w3.org/2000/svg" version="1.1" width="512px" height="512px" style="shape-rendering:geometricPrecision; text-rendering:geometricPrecision; image-rendering:optimizeQuality; fill-rule:evenodd; clip-rule:evenodd" xmlns:xlink="http://www.w3.org/1999/xlink">
<g><path style="opacity:1" fill="#565656" d="M 473.5,290.5 C 463.237,294.733 452.57,297.399 441.5,298.5C 439.5,298.5 437.5,298.5 435.5,298.5C 451.426,260.024 442.426,228.858 408.5,205C 398.218,199.793 387.384,196.626 376,195.5C 370.453,141.631 342.953,103.798 293.5,82C 268.914,72.9625 243.914,70.4625 218.5,74.5C 248.826,44.332 285.492,31.4987 328.5,36C 390.243,46.6165 428.076,82.4498 442,143.5C 442.912,148.464 443.412,153.464 443.5,158.5C 477.429,161.266 499.263,178.933 509,211.5C 515.18,246.186 503.347,272.52 473.5,290.5 Z"/></g>
<g><path style="opacity:1" fill="#6c6c6c" d="M 308.5,60.5 C 340.526,59.7709 367.692,70.7709 390,93.5C 392.677,102.156 389.511,105.989 380.5,105C 360.993,85.4198 337.326,75.4198 309.5,75C 303.192,70.6149 302.859,65.7816 308.5,60.5 Z"/></g>
<g><path style="opacity:0.995" fill="#6c6c6c" d="M 435.5,298.5 C 400.5,298.5 365.5,298.5 330.5,298.5C 322.932,297.188 315.265,297.188 307.5,298.5C 294.833,298.5 282.167,298.5 269.5,298.5C 302.949,292.883 322.115,273.217 327,239.5C 327.342,209.199 313.842,187.699 286.5,175C 279.318,172.697 271.985,171.03 264.5,170C 250.535,138.206 226.535,118.706 192.5,111.5C 198.965,97.5527 207.631,85.2194 218.5,74.5C 243.914,70.4625 268.914,72.9625 293.5,82C 342.953,103.798 370.453,141.631 376,195.5C 387.384,196.626 398.218,199.793 408.5,205C 442.426,228.858 451.426,260.024 435.5,298.5 Z"/></g>
<g><path style="opacity:1" fill="#82807f" d="M 192.5,111.5 C 226.535,118.706 250.535,138.206 264.5,170C 271.985,171.03 279.318,172.697 286.5,175C 313.842,187.699 327.342,209.199 327,239.5C 322.115,273.217 302.949,292.883 269.5,298.5C 261.5,298.5 253.5,298.5 245.5,298.5C 252.012,297.833 258.679,297.167 265.5,296.5C 281.883,275.416 285.05,252.416 275,227.5C 262.889,205.18 244.055,193.013 218.5,191C 203.292,155.8 176.626,135.8 138.5,131C 131.283,130.641 124.283,130.474 117.5,130.5C 139.605,113.057 164.605,106.723 192.5,111.5 Z"/></g>
<g><path style="opacity:1" fill="#6c6c6c" d="M 400.5,119.5 C 403.862,119.07 406.695,120.07 409,122.5C 412.488,128.976 414.988,135.809 416.5,143C 415.25,149.901 411.25,152.234 404.5,150C 403.667,149.167 402.833,148.333 402,147.5C 400.126,140.712 397.959,134.046 395.5,127.5C 396.156,124.184 397.823,121.517 400.5,119.5 Z"/></g>
<g><path style="opacity:0.999" fill="#a09c9b" d="M 117.5,130.5 C 124.283,130.474 131.283,130.641 138.5,131C 176.626,135.8 203.292,155.8 218.5,191C 244.055,193.013 262.889,205.18 275,227.5C 285.05,252.416 281.883,275.416 265.5,296.5C 258.679,297.167 252.012,297.833 245.5,298.5C 245.167,298.5 244.833,298.5 244.5,298.5C 231.5,298.5 218.5,298.5 205.5,298.5C 192.5,298.5 179.5,298.5 166.5,298.5C 151.5,298.5 136.5,298.5 121.5,298.5C 113.629,297.216 105.629,297.216 97.5,298.5C 70.236,301.955 50.4027,291.622 38,267.5C 28.7598,237.16 38.2598,214.993 66.5,201C 71.4168,199.418 76.4168,198.251 81.5,197.5C 84.3657,170.093 96.3657,147.76 117.5,130.5 Z"/></g>
<g><path style="opacity:0.932" fill="#a3ecfe" d="M 473.5,290.5 C 434.007,330.826 394.007,370.66 353.5,410C 346.773,411.474 343.107,408.808 342.5,402C 342.384,399.456 343.217,397.289 345,395.5C 377.368,363.299 409.535,330.965 441.5,298.5C 452.57,297.399 463.237,294.733 473.5,290.5 Z"/></g>
<g><path style="opacity:0.973" fill="#a1ecfe" d="M 121.5,298.5 C 85.3681,335.132 49.0348,371.632 12.5,408C 7.96274,411.452 3.62941,411.285 -0.5,407.5C -0.5,403.833 -0.5,400.167 -0.5,396.5C 32.5,364.167 65.1667,331.5 97.5,298.5C 105.629,297.216 113.629,297.216 121.5,298.5 Z"/></g>
<g><path style="opacity:0.979" fill="#f6ca42" d="M 166.5,298.5 C 179.5,298.5 192.5,298.5 205.5,298.5C 188.202,316.299 170.702,333.965 153,351.5C 150.132,357.46 151.632,361.96 157.5,365C 176.167,365.333 194.833,365.667 213.5,366C 168.581,401.612 123.914,437.446 79.5,473.5C 76.5259,470.201 76.0259,466.534 78,462.5C 104.833,435.667 131.667,408.833 158.5,382C 140.167,381.667 121.833,381.333 103.5,381C 98.2685,378.367 96.4351,374.201 98,368.5C 120.673,344.994 143.507,321.66 166.5,298.5 Z"/></g>
<g><path style="opacity:1" fill="#f9b03c" d="M 205.5,298.5 C 218.5,298.5 231.5,298.5 244.5,298.5C 228.035,315.465 211.368,332.299 194.5,349C 214.167,349.333 233.833,349.667 253.5,350C 258.527,353.812 259.694,358.646 257,364.5C 202.92,401.124 148.753,437.624 94.5,474C 89.1927,477.479 84.1927,477.312 79.5,473.5C 123.914,437.446 168.581,401.612 213.5,366C 194.833,365.667 176.167,365.333 157.5,365C 151.632,361.96 150.132,357.46 153,351.5C 170.702,333.965 188.202,316.299 205.5,298.5 Z"/></g>
<g><path style="opacity:0.93" fill="#9febfd" d="M 330.5,298.5 C 316.369,313.132 302.035,327.632 287.5,342C 280.499,344.666 276.166,342.332 274.5,335C 274.625,333.373 275.125,331.873 276,330.5C 286.702,319.965 297.202,309.298 307.5,298.5C 315.265,297.188 322.932,297.188 330.5,298.5 Z"/></g>
<g><path style="opacity:0.933" fill="#a0ebff" d="M 362.5,318.5 C 371.152,317.986 374.652,321.986 373,330.5C 352.167,351.333 331.333,372.167 310.5,393C 299.84,394.846 296.34,390.68 300,380.5C 320.728,359.605 341.562,338.938 362.5,318.5 Z"/></g>
<g><path style="opacity:0.921" fill="#9fecff" d="M 35.5,327.5 C 46.1507,326.149 49.6507,330.482 46,340.5C 39.8333,346.667 33.6667,352.833 27.5,359C 17,361.833 13.1667,358 16,347.5C 22.7027,340.965 29.2027,334.298 35.5,327.5 Z"/></g>
<g><path style="opacity:0.919" fill="#a1ecff" d="M 415.5,370.5 C 424.683,371.19 427.517,375.856 424,384.5C 419.667,388.5 415.333,388.5 411,384.5C 407.998,378.2 409.498,373.533 415.5,370.5 Z"/></g>
<g><path style="opacity:0.924" fill="#a0ebff" d="M 277.5,403.5 C 286.152,402.986 289.652,406.986 288,415.5C 280.5,423 273,430.5 265.5,438C 255.43,439.267 251.93,435.101 255,425.5C 262.395,417.937 269.895,410.603 277.5,403.5 Z"/></g>
<g><path style="opacity:0.924" fill="#a0ecff" d="M 69.5,404.5 C 79.5624,403.718 83.0624,408.052 80,417.5C 73.8333,423.667 67.6667,429.833 61.5,436C 51.735,439.198 47.5684,435.698 49,425.5C 56.0359,418.632 62.8693,411.632 69.5,404.5 Z"/></g>
<g><path style="opacity:0.898" fill="#a0ecff" d="M 323.5,422.5 C 334.3,422.608 337.3,427.441 332.5,437C 323.707,440.534 319.207,437.701 319,428.5C 319.599,425.746 321.099,423.746 323.5,422.5 Z"/></g>
<g><path style="opacity:0.9" fill="#a1ecff" d="M 33.5,440.5 C 43.33,438.829 47.1634,442.829 45,452.5C 40.6204,457.343 35.9538,457.677 31,453.5C 28.6062,448.527 29.4395,444.194 33.5,440.5 Z"/></g>
</svg>
